<svg id="Capa_1" enable-background="new 0 0 512 512" height="512" viewBox="0 0 512 512" width="512" xmlns="http://www.w3.org/2000/svg"><g><g><path d="m463.968 479.832v-43.145h-45.971c-1.291 0-2.341-1.05-2.341-2.341v-25.268h-52.867c-2.14 0-3.875 1.735-3.875 3.875v66.879z" fill="#6cf5c2"/><path d="m390.546 479.832v-66.879c0-2.14 1.735-3.875 3.875-3.875h-31.632c-2.14 0-3.875 1.735-3.875 3.875v66.879z" fill="#00f2a6"/></g><g fill="#acacac"><path d="m261.009 436.081c-2.253 1.156-4.798 1.821-7.5 1.821s-5.247-.665-7.5-1.821v43.727c2.253-1.156 4.798-1.821 7.5-1.821s5.247.665 7.5 1.821z"/><path d="m253.509 404.888c2.702 0 5.247.665 7.5 1.821v-32.867h-15v32.867c2.253-1.156 4.798-1.821 7.5-1.821z"/><path d="m159.81 486.993v15h79.013c-1.156-2.253-1.821-4.798-1.821-7.5s.665-5.247 1.821-7.5z"/><path d="m347.208 501.993v-15h-79.013c1.156 2.253 1.821 4.798 1.821 7.5s-.665 5.247-1.821 7.5z"/></g><g><g><path d="m210.426 312.03h86.166v37.716h-86.166z" fill="#838383"/><path d="m210.426 312.03h31.917v37.716h-31.917z" fill="#5a5a5a"/><path d="m79.691 304.674c0 4.615 3.741 8.357 8.357 8.357h330.922c4.615 0 8.356-3.741 8.356-8.356v-39.015c-115.561-6.661-231.409-6.674-346.971-.038l-.665.038v39.014z" fill="#9c9c9c"/><path d="m111.396 304.674v-39.014h-31.705v39.014c0 4.615 3.741 8.357 8.357 8.357h31.705c-4.615-.001-8.357-3.742-8.357-8.357z" fill="#838383"/><path d="m418.97 73.028h-61.814c7.083 14.903 11.051 31.573 11.051 49.171 0 63.346-51.352 114.699-114.699 114.699-63.346 0-114.699-51.352-114.699-114.699 0-17.598 3.968-34.268 11.051-49.171h-61.812c-4.615 0-8.357 3.741-8.357 8.357v184.275h347.636v-184.275c0-4.616-3.741-8.357-8.357-8.357z" fill="#eaf6ff"/><g><path d="m119.753 73.028h-31.705c-4.615 0-8.357 3.741-8.357 8.357v184.275h31.705v-184.275c0-4.616 3.742-8.357 8.357-8.357z" fill="#d8ecfe"/></g><g><g><circle cx="253.509" cy="122.199" fill="#60b7ff" r="114.699"/></g><g><circle cx="253.509" cy="122.199" fill="#26a6fe" r="114.699"/></g><g><path d="m222.514 218.393c-31.438-20.454-52.23-55.892-52.23-96.194 0-40.303 20.792-75.74 52.23-96.195 8.918-11.7 19.562-18.504 30.995-18.504-63.346 0-114.699 51.352-114.699 114.699s51.352 114.699 114.699 114.699c-11.433-.001-22.077-6.804-30.995-18.505z" fill="#0593fc"/></g><g><ellipse cx="253.509" cy="122.199" fill="#6cf5c2" rx="56.898" ry="114.699"/></g><g><path d="m228.132 122.199c0-52.323 17.381-96.46 41.138-110.237-5.005-2.903-10.292-4.461-15.76-4.461-31.424 0-56.898 51.352-56.898 114.699s25.474 114.699 56.898 114.699c5.468 0 10.755-1.559 15.76-4.461-23.758-13.78-41.138-57.916-41.138-110.239z" fill="#00f2a6"/></g><path d="m253.509 0c-67.38 0-122.198 54.818-122.198 122.198 0 67.381 54.818 122.199 122.198 122.199s122.198-54.818 122.198-122.199c0-67.38-54.818-122.198-122.198-122.198zm-49.398 122.198c0-11.195.816-22.116 2.384-32.49h39.514v64.981h-39.514c-1.567-10.374-2.384-21.295-2.384-32.491zm56.898-105.823c9.477 3.44 18.667 13.242 26.014 28.053 4.428 8.926 7.992 19.159 10.616 30.28h-36.629v-58.333zm-15 0v58.333h-36.629c2.624-11.121 6.188-21.354 10.616-30.28 7.346-14.811 16.536-24.613 26.013-28.053zm0 153.314v58.333c-9.477-3.44-18.667-13.242-26.014-28.053-4.428-8.926-7.992-19.16-10.615-30.28zm15 58.334v-58.333h36.629c-2.624 11.121-6.187 21.354-10.615 30.28-7.347 14.811-16.537 24.613-26.014 28.053zm0-73.334v-64.981h39.514c1.568 10.375 2.384 21.295 2.384 32.49s-.816 22.116-2.384 32.491zm54.68-64.981h39.98c3.268 10.253 5.038 21.168 5.038 32.49s-1.77 22.238-5.039 32.491h-39.98c1.445-10.313 2.218-21.198 2.218-32.491 0-11.292-.772-22.178-2.217-32.49zm33.905-15h-36.564c-4.692-21.678-12.541-40.032-22.521-53.124 25.803 9.519 46.963 28.698 59.085 53.124zm-133.086-53.124c-9.98 13.092-17.828 31.446-22.521 53.124h-36.564c12.122-24.426 33.283-43.605 59.085-53.124zm-65.159 68.124h39.98c-1.445 10.312-2.218 21.198-2.218 32.49 0 11.293.773 22.179 2.218 32.491h-39.98c-3.268-10.253-5.039-21.169-5.039-32.491.001-11.322 1.771-22.237 5.039-32.49zm6.075 79.981h36.563c4.693 21.678 12.541 40.031 22.521 53.124-25.802-9.519-46.962-28.697-59.084-53.124zm133.085 53.124c9.98-13.092 17.828-31.446 22.521-53.124h36.563c-12.121 24.427-33.281 43.605-59.084 53.124z" fill="#0182fc"/></g><g><path d="m147.92 353.751v16.086c0 2.764 2.241 5.005 5.005 5.005h201.169c2.764 0 5.005-2.241 5.005-5.005v-16.086c0-2.764-2.241-5.005-5.005-5.005h-201.169c-2.764 0-5.005 2.241-5.005 5.005z" fill="#9c9c9c"/></g><g><path d="m179.407 369.837v-16.086c0-2.764 2.241-5.005 5.005-5.005h-31.487c-2.764 0-5.005 2.241-5.005 5.005v16.086c0 2.764 2.241 5.005 5.005 5.005h31.487c-2.764 0-5.005-2.241-5.005-5.005z" fill="#838383"/></g></g></g><g><circle cx="253.509" cy="494.493" fill="#0593fc" r="17.507"/></g><g><circle cx="253.509" cy="421.395" fill="#6cf5c2" r="17.507"/></g><g><circle cx="253.509" cy="287.65" fill="#fff" r="7.5"/></g><g><path d="m436.813 385.249v-12.583c0-6.255 5.089-11.344 11.344-11.344s11.344 5.089 11.344 11.344v12.583h15v-12.583c0-14.526-11.817-26.344-26.344-26.344s-26.344 11.817-26.344 26.344v12.583z" fill="#838383"/><g><path d="m478.316 437.688h-60.32c-1.845 0-3.34-1.495-3.34-3.34v-46.759c0-1.845 1.495-3.34 3.34-3.34h60.32c1.845 0 3.34 1.495 3.34 3.34v46.759c0 1.844-1.495 3.34-3.34 3.34z" fill="#fed402"/></g><g><path d="m438.91 434.347v-46.758c0-1.845 1.496-3.341 3.341-3.341h-24.255c-1.845 0-3.341 1.496-3.341 3.341v46.758c0 1.845 1.495 3.341 3.341 3.341h24.255c-1.845 0-3.341-1.496-3.341-3.341z" fill="#fac600"/></g></g><g><path d="m148.104 479.832v-66.879c0-2.14-1.735-3.875-3.875-3.875h-97.304c-2.14 0-3.875 1.735-3.875 3.875v66.879z" fill="#6cf5c2"/><path d="m74.853 479.832v-66.879c0-2.14 1.735-3.875 3.875-3.875h-31.803c-2.14 0-3.875 1.735-3.875 3.875v66.879z" fill="#00f2a6"/><g><path d="m156.935 508.542h-122.716c-2.14 0-3.875-1.735-3.875-3.875v-21.96c0-2.14 1.735-3.875 3.875-3.875h122.715c2.14 0 3.875 1.735 3.875 3.875v21.96c.001 2.14-1.734 3.875-3.874 3.875z" fill="#9c9c9c"/></g><g><path d="m62.138 504.667v-21.96c0-2.14 1.735-3.875 3.875-3.875h-31.794c-2.14 0-3.875 1.735-3.875 3.875v21.96c0 2.14 1.735 3.875 3.875 3.875h31.794c-2.14 0-3.875-1.735-3.875-3.875z" fill="#838383"/></g></g><g><path d="m472.799 508.542h-122.716c-2.14 0-3.875-1.735-3.875-3.875v-21.96c0-2.14 1.735-3.875 3.875-3.875h122.715c2.14 0 3.875 1.735 3.875 3.875v21.96c.001 2.14-1.734 3.875-3.874 3.875z" fill="#9c9c9c"/></g><g><path d="m382.906 504.667v-21.96c0-2.14 1.735-3.875 3.875-3.875h-36.698c-2.14 0-3.875 1.735-3.875 3.875v21.96c0 2.14 1.735 3.875 3.875 3.875h36.698c-2.14 0-3.875-1.735-3.875-3.875z" fill="#838383"/></g></g></svg>