<svg height="504pt" viewBox="0 -56 504 504" width="504pt" xmlns="http://www.w3.org/2000/svg"><path d="m482.300781 322.992188h-460.601562c-9.773438 0-17.699219-7.925782-17.699219-17.699219v-283.59375c0-9.773438 7.925781-17.699219 17.699219-17.699219h460.601562c9.773438 0 17.699219 7.925781 17.699219 17.699219v283.59375c0 9.773437-7.925781 17.699219-17.699219 17.699219zm0 0" fill="#f4efed"/><path d="m273.796875 33.890625h-43.589844v24.121094c-13.699219 2.800781-26.445312 8.210937-37.730469 15.660156l-17.078124-17.082031-30.824219 30.824218 17.078125 17.078126c-7.445313 11.28125-12.855469 24.027343-15.65625 37.726562h-24.121094v43.589844h24.121094c2.800781 13.703125 8.210937 26.449218 15.65625 37.730468l-17.078125 17.078126 30.824219 30.824218 17.078124-17.078125c11.285157 7.445313 24.027344 12.855469 37.730469 15.65625v24.121094h43.589844v-24.121094c13.699219-2.800781 26.445313-8.210937 37.726563-15.65625l17.078124 17.078125 30.824219-30.824218-17.078125-17.078126c7.445313-11.28125 12.855469-24.027343 15.65625-37.730468h24.121094v-43.589844h-24.121094c-2.800781-13.699219-8.210937-26.445312-15.65625-37.726562l17.078125-17.082032-30.824219-30.820312-17.078124 17.078125c-11.28125-7.449219-24.027344-12.855469-37.726563-15.65625zm46.988281 114.355469h-62.96875v-29.820313l-23.402344 22.792969-23.402343 22.796875 46.804687 45.59375v-29.824219h62.96875c-7.167968 31.382813-35.234375 54.808594-68.789062 54.808594-38.976563 0-70.574219-31.601562-70.574219-70.578125s31.597656-70.574219 70.574219-70.574219c33.558594 0 61.621094 23.421875 68.789062 54.804688zm0 0" fill="#ff4397"/><path d="m482.300781 4h-20c9.773438 0 17.699219 7.925781 17.699219 17.699219v283.59375c0 9.773437-7.925781 17.699219-17.699219 17.699219h20c9.773438 0 17.699219-7.925782 17.699219-17.699219v-283.59375c0-9.773438-7.925781-17.699219-17.699219-17.699219zm0 0" fill="#d6d1cf"/><path d="m21.699219 322.992188h20c-9.773438 0-17.699219-7.925782-17.699219-17.699219v-283.59375c0-9.773438 7.925781-17.699219 17.699219-17.699219h-20c-9.773438 0-17.699219 7.925781-17.699219 17.699219v283.59375c0 9.773437 7.925781 17.699219 17.699219 17.699219zm0 0" fill="#fff"/><path d="m413.800781 388.710938h-323.601562v-23.707032c0-9.777344 7.921875-17.699218 17.699219-17.699218h288.203124c9.777344 0 17.699219 7.921874 17.699219 17.699218zm0 0" fill="#7bac51"/><path d="m396.101562 347.304688h-20c9.777344 0 17.699219 7.921874 17.699219 17.699218v23.710938h20v-23.710938c0-9.777344-7.921875-17.699218-17.699219-17.699218zm0 0" fill="#5d8e33"/><path d="m107.898438 347.304688h20c-9.777344 0-17.699219 7.921874-17.699219 17.699218v23.710938h-20v-23.710938c0-9.777344 7.921875-17.699218 17.699219-17.699218zm0 0" fill="#99ca6f"/><path d="m157.007812 322.992188h189.984376v24.3125h-189.984376zm0 0" fill="#5d8e33"/><g fill="#690589"><path d="m20 78.40625c-2.207031 0-4-1.789062-4-4v-24c0-2.207031 1.792969-4 4-4s4 1.792969 4 4v24c0 2.210938-1.792969 4-4 4zm0 0"/><path d="m413.800781 392.710938h-323.601562c-2.210938 0-4-1.789063-4-4v-23.707032c0-11.964844 9.734375-21.703125 21.699219-21.703125h288.203124c11.964844 0 21.699219 9.734375 21.699219 21.703125v23.707032c0 2.210937-1.789062 4-4 4zm-319.601562-8h315.601562v-19.707032c0-7.554687-6.144531-13.703125-13.699219-13.703125h-288.203124c-7.554688 0-13.699219 6.148438-13.699219 13.703125zm0 0"/><path d="m346.992188 351.304688h-189.984376c-2.210937 0-4-1.792969-4-4v-24.3125c0-2.207032 1.789063-4 4-4h189.984376c2.207031 0 4 1.792968 4 4v24.3125c0 2.207031-1.789063 4-4 4zm-185.984376-8h181.984376v-16.3125h-181.984376zm0 0"/><path d="m482.300781 326.992188h-460.601562c-11.964844 0-21.699219-9.734376-21.699219-21.703126v-283.589843c0-11.964844 9.734375-21.699219 21.699219-21.699219h460.601562c11.964844 0 21.699219 9.734375 21.699219 21.699219v283.59375c0 11.964843-9.734375 21.699219-21.699219 21.699219zm-460.601562-318.992188c-7.554688 0-13.699219 6.144531-13.699219 13.699219v283.59375c0 7.554687 6.144531 13.699219 13.699219 13.699219h460.601562c7.554688 0 13.699219-6.144532 13.699219-13.699219v-283.59375c0-7.554688-6.144531-13.699219-13.699219-13.699219zm0 0"/><path d="m273.792969 298.140625h-43.589844c-2.207031 0-4-1.789063-4-4v-20.90625c-11.730469-2.757813-22.859375-7.375-33.171875-13.769531l-14.804688 14.804687c-1.558593 1.558594-4.09375 1.558594-5.65625 0l-30.824218-30.824219c-1.558594-1.5625-1.558594-4.09375 0-5.65625l14.804687-14.804687c-6.390625-10.3125-11.011719-21.445313-13.769531-33.171875h-20.90625c-2.210938 0-4-1.792969-4-4v-43.589844c0-2.207031 1.789062-4 4-4h20.90625c2.757812-11.730468 7.378906-22.863281 13.769531-33.175781l-14.804687-14.804687c-.75-.75-1.171875-1.765626-1.171875-2.828126 0-1.058593.421875-2.074218 1.171875-2.824218l30.824218-30.824219c1.5-1.5 4.15625-1.5 5.65625 0l14.804688 14.800781c10.316406-6.390625 21.445312-11.011718 33.171875-13.769531v-20.90625c0-2.207031 1.792969-4 4-4h43.589844c2.210937 0 4 1.792969 4 4v20.90625c11.730469 2.757813 22.859375 7.378906 33.175781 13.769531l14.804688-14.800781c1.5-1.5 4.15625-1.5 5.65625 0l30.824218 30.824219c.75.75 1.171875 1.765625 1.171875 2.824218 0 1.0625-.421875 2.078126-1.171875 2.828126l-14.808594 14.804687c6.394532 10.3125 11.015626 21.445313 13.773438 33.175781h20.90625c2.210938 0 4 1.792969 4 4v43.589844c0 2.207031-1.789062 4-4 4h-20.90625c-2.757812 11.730469-7.375 22.859375-13.769531 33.171875l14.804687 14.804687c.75.75 1.171875 1.769532 1.171875 2.828126 0 1.0625-.421875 2.078124-1.171875 2.828124l-30.824218 30.824219c-1.5625 1.558594-4.09375 1.558594-5.65625 0l-14.804688-14.804687c-10.308594 6.390625-21.441406 11.011718-33.171875 13.769531v20.90625c-.003906 2.210937-1.792969 4-4.003906 4zm-39.589844-8h35.589844v-20.121094c0-1.898437 1.335937-3.539062 3.199219-3.917969 12.964843-2.652343 25.1875-7.726562 36.324218-15.078124 1.589844-1.046876 3.691406-.832032 5.035156.511718l14.25 14.25 25.164063-25.167968-14.25-14.25c-1.34375-1.34375-1.554687-3.449219-.507813-5.03125 7.351563-11.140626 12.425782-23.363282 15.078126-36.324219.378906-1.867188 2.015624-3.203125 3.917968-3.203125h20.121094v-35.589844h-20.121094c-1.902344 0-3.539062-1.335938-3.917968-3.199219-2.652344-12.964843-7.726563-25.1875-15.078126-36.324219-1.046874-1.585937-.835937-3.6875.507813-5.035156l14.25-14.25-25.164063-25.167968-14.25 14.253906c-1.34375 1.347656-3.449218 1.558594-5.035156.511718-11.136718-7.355468-23.359375-12.429687-36.324218-15.078124-1.859376-.378907-3.199219-2.019532-3.199219-3.917969v-20.121094h-35.589844v20.125c0 1.898437-1.335937 3.539063-3.199219 3.917969-12.960937 2.648437-25.183594 7.71875-36.324218 15.078125-1.585938 1.046875-3.691407.835937-5.03125-.511719l-14.25-14.253906-25.167969 25.167968 14.25 14.25c1.34375 1.34375 1.558593 3.445313.511719 5.03125-7.351563 11.140626-12.425782 23.363282-15.078126 36.328126-.378906 1.863281-2.019531 3.199218-3.917968 3.199218h-20.121094v35.589844h20.121094c1.898437 0 3.539062 1.335938 3.917968 3.199219 2.652344 12.960937 7.722657 25.183593 15.078126 36.324219 1.046874 1.585937.832031 3.6875-.511719 5.03125l-14.25 14.253906 25.167969 25.164062 14.25-14.25c1.339843-1.34375 3.445312-1.554687 5.03125-.507812 11.136718 7.351562 23.359374 12.421875 36.324218 15.078125 1.863282.378906 3.199219 2.015625 3.199219 3.917969zm17.796875-51.550781c-41.121094 0-74.574219-33.453125-74.574219-74.574219s33.453125-74.574219 74.574219-74.574219c35.007812 0 64.898438 23.816406 72.683594 57.914063.273437 1.1875-.011719 2.433593-.773438 3.382812-.757812.953125-1.90625 1.507813-3.125 1.507813h-62.96875c-2.207031 0-4-1.792969-4-4v-20.34375l-37.074218 36.113281 37.074218 36.113281v-20.34375c0-2.207031 1.792969-4 4-4h62.96875c1.21875 0 2.367188.554688 3.125 1.507813.761719.953125 1.042969 2.195312.773438 3.382812-7.785156 34.101563-37.671875 57.914063-72.683594 57.914063zm0-141.148438c-36.710938 0-66.574219 29.863282-66.574219 66.574219 0 36.707031 29.863281 66.574219 66.574219 66.574219 29.550781 0 55.015625-19.003906 63.574219-46.804688h-53.757813v25.824219c0 1.605469-.960937 3.058594-2.445312 3.683594s-3.191406.304687-4.34375-.820313l-46.808594-45.589844c-.773438-.753906-1.207031-1.785156-1.207031-2.867187 0-1.078125.4375-2.113281 1.207031-2.867187l46.808594-45.59375c1.148437-1.121094 2.859375-1.445313 4.34375-.820313s2.445312 2.078125 2.445312 3.6875v25.824219h53.757813c-8.558594-27.800782-34.023438-46.804688-63.574219-46.804688zm0 0"/></g></svg>