<svg height="512pt" viewBox="0 -1 512 512" width="512pt" xmlns="http://www.w3.org/2000/svg"><path d="m189.730469 393.105469h129.230469v67.640625h-129.230469zm0 0" fill="#7c8388"/><path d="m298.316406 393.105469h20.644532v67.640625h-20.644532zm0 0" fill="#6a7075"/><path d="m394.3125 510.414062h-279.9375c-4.011719 0-7.265625-3.253906-7.265625-7.265624v-31.789063c0-10.210937 8.277344-18.488281 18.488281-18.488281h257.492188c10.210937 0 18.488281 8.277344 18.488281 18.488281v31.789063c.003906 4.015624-3.25 7.265624-7.265625 7.265624zm0 0" fill="#a1a1a7"/><path d="m401.585938 471.363281v31.78125c0 4.015625-3.253907 7.269531-7.269532 7.269531h-20.921875c4.015625 0 7.269531-3.253906 7.269531-7.269531v-31.78125c0-10.214843-8.277343-18.492187-18.492187-18.492187h20.921875c10.210938 0 18.492188 8.277344 18.492188 18.492187zm0 0" fill="#929298"/><path d="m0 357.117188v-311.078126c0-25.425781 20.613281-46.039062 46.039062-46.039062h419.921876c25.425781 0 46.039062 20.613281 46.039062 46.039062v311.078126c0 25.429687-512 25.429687-512 0zm0 0" fill="#ffe1a8"/><path d="m465.960938 403.160156h-419.921876c-25.425781 0-46.039062-20.613281-46.039062-46.042968v-15.023438h512v15.023438c0 25.429687-20.613281 46.042968-46.039062 46.042968zm0 0" fill="#a1a1a7"/><path d="m511.996094 46.046875v311.074219c0 25.429687-20.613282 46.042968-46.03125 46.042968h-25.460938c25.429688 0 46.042969-20.613281 46.042969-46.042968v-311.074219c0-25.429687-20.613281-46.04296875-46.042969-46.04296875h25.460938c25.417968 0 46.03125 20.60937475 46.03125 46.04296875zm0 0" fill="#ffd98f"/><path d="m511.996094 342.089844v15.03125c0 25.429687-20.613282 46.042968-46.03125 46.042968h-25.460938c25.429688 0 46.042969-20.613281 46.042969-46.042968v-15.03125zm0 0" fill="#929298"/><path d="m444.316406 342.09375h-377.886718v-264.515625c0-12.707031 10.300781-23.007813 23.007812-23.007813h331.871094c12.707031 0 23.007812 10.300782 23.007812 23.007813zm0 0" fill="#fff5f5"/><path d="m444.3125 77.582031v264.507813h-24.824219v-264.507813c0-12.714843-10.296875-23.011719-23-23.011719h24.820313c12.707031 0 23.003906 10.296876 23.003906 23.011719zm0 0" fill="#efe2dd"/><path d="m444.320312 77.582031v37.734375h-377.890624v-37.734375c0-12.714843 10.296874-23.011719 23.011718-23.011719h331.867188c12.714844 0 23.011718 10.296876 23.011718 23.011719zm0 0" fill="#87c080"/><path d="m444.320312 77.582031v37.734375h-24.820312v-37.734375c0-12.714843-10.296875-23.011719-23.011719-23.011719h24.824219c12.714844 0 23.007812 10.296876 23.007812 23.011719zm0 0" fill="#70b568"/><path d="m397.894531 198.710938h-285.039062c-4.9375 0-8.9375-4-8.9375-8.9375v-30.511719c0-4.9375 4-8.941407 8.9375-8.941407h285.039062c4.9375 0 8.9375 4.003907 8.9375 8.941407v30.511719c0 4.9375-4 8.9375-8.9375 8.9375zm0 0" fill="#aed3ff"/><path d="m406.835938 159.257812v30.515626c0 4.933593-4.007813 8.9375-8.9375 8.9375h-22.652344c4.933594 0 8.9375-4.003907 8.9375-8.9375v-30.515626c0-4.933593-4.003906-8.9375-8.9375-8.9375h22.652344c4.929687 0 8.9375 4.003907 8.9375 8.9375zm0 0" fill="#83bfff"/><path d="m456.371094 360.789062h-74.882813c-14.726562 0-26.667969-11.941406-26.667969-26.667968v-59.617188c0-14.730468 11.941407-26.667968 26.667969-26.667968h74.882813c14.730468 0 26.667968 11.9375 26.667968 26.667968v59.617188c0 14.726562-11.9375 26.667968-26.667968 26.667968zm0 0" fill="#ea4444"/><path d="m483.042969 274.496094v59.625c0 14.730468-11.941407 26.664062-26.664063 26.664062h-16.472656c14.722656 0 26.664062-11.933594 26.664062-26.664062v-59.625c0-14.722656-11.941406-26.664063-26.664062-26.664063h16.472656c14.722656 0 26.664063 11.941407 26.664063 26.664063zm0 0" fill="#d93131"/><path d="m439.96875 292.757812c0-12.414062-10.75-22.316406-23.453125-20.902343-9.769531 1.085937-17.601563 9.074219-18.527344 18.859375-.589843 6.253906 1.566407 12 5.398438 16.195312 2.6875 2.945313 4.171875 6.785156 4.171875 10.769532v9.40625c0 5.90625 4.359375 11.09375 10.242187 11.671874 6.757813.660157 12.503907-4.691406 12.503907-11.316406v-9.753906c0-4.078125 1.636718-7.925781 4.347656-10.96875 3.304687-3.710938 5.316406-8.597656 5.316406-13.960938zm0 0" fill="#fff5f5"/><path d="m439.964844 292.761719c0 5.355469-2.007813 10.246093-5.3125 13.953125-2.71875 3.046875-4.355469 6.894531-4.355469 10.972656v9.75c0 6.628906-5.742187 11.984375-12.496094 11.316406-1.804687-.175781-3.460937-.78125-4.890625-1.710937 3.167969-2.027344 5.289063-5.578125 5.289063-9.605469v-12.152344c0-4.078125 1.640625-7.929687 4.355469-10.976562 3.304687-3.707032 5.3125-6.191406 5.3125-11.546875 0-9.523438-6.332032-17.574219-15.007813-20.160157 1.171875-.359374 2.398437-.605468 3.652344-.75 12.707031-1.410156 23.453125 8.492188 23.453125 20.910157zm0 0" fill="#efe2dd"/><path d="m378.402344 213.875v33.960938h28.460937v-32.789063c0-6.664063 5.402344-12.070313 12.066407-12.070313 6.667968 0 12.070312 5.40625 12.070312 12.070313v32.789063h28.460938v-33.960938c0-21.738281-17.621094-39.359375-39.359376-39.359375h-2.339843c-21.738281 0-39.359375 17.621094-39.359375 39.359375zm0 0" fill="#a1a1a7"/><path d="m459.457031 213.875v33.957031h-15.136719v-33.957031c0-19.550781-14.269531-35.785156-32.964843-38.835938 2.078125-.347656 4.21875-.523437 6.402343-.523437h2.347657c21.734375 0 39.351562 17.625 39.351562 39.359375zm0 0" fill="#929298"/><g fill="#aed3ff"><path d="m124.382812 260.339844h-14.414062c-4.140625 0-7.5-3.359375-7.5-7.5 0-4.144532 3.359375-7.5 7.5-7.5h14.414062c4.144532 0 7.5 3.355468 7.5 7.5 0 4.140625-3.355468 7.5-7.5 7.5zm0 0"/><path d="m318.960938 260.339844h-159.058594c-4.140625 0-7.5-3.359375-7.5-7.5 0-4.144532 3.359375-7.5 7.5-7.5h159.058594c4.140624 0 7.5 3.355468 7.5 7.5 0 4.140625-3.359376 7.5-7.5 7.5zm0 0"/><path d="m318.960938 291.835938h-208.992188c-4.140625 0-7.5-3.359376-7.5-7.5 0-4.144532 3.359375-7.5 7.5-7.5h208.992188c4.140624 0 7.5 3.355468 7.5 7.5 0 4.140624-3.359376 7.5-7.5 7.5zm0 0"/></g></svg>